<svg width="115" height="41" viewBox="0 0 115 41" fill="none" xmlns="http://www.w3.org/2000/svg">
<g clip-path="url(#clip0_1248_9806)">
<mask id="mask0_1248_9806" style="mask-type:luminance" maskUnits="userSpaceOnUse" x="11" y="8" width="30" height="26">
<path d="M11.8047 8.82422H40.9947V33.0102H11.8047V8.82422Z" fill="white"/>
</mask>
<g mask="url(#mask0_1248_9806)">
<path d="M25.9567 21.6483C25.4727 23.0533 25.0417 24.2983 24.6157 25.5433C23.8367 27.8193 23.0717 30.1013 22.2657 32.3683C22.1787 32.6133 21.8827 32.9633 21.6807 32.9643C18.4347 33.0023 15.1897 32.9903 11.8047 32.9903C12.1507 31.9663 12.4597 31.0323 12.7817 30.1043C15.1717 23.2343 17.5697 16.3673 19.9487 9.49225C20.1137 9.01625 20.3297 8.82125 20.8637 8.82425C24.4917 8.85025 28.1227 8.84425 31.7507 8.82925C32.2157 8.82725 32.4697 8.93425 32.6407 9.41425C35.3667 17.0843 38.1137 24.7463 40.8547 32.4113C40.9087 32.5613 40.9347 32.7213 40.9937 32.9533C40.6837 32.9693 40.4257 32.9933 40.1677 32.9933C37.0267 32.9973 33.8837 32.9772 30.7427 33.0103C30.1417 33.0163 29.9057 32.8023 29.7187 32.2593C28.5917 28.9853 27.4297 25.7253 26.2767 22.4593C26.2007 22.2443 26.1097 22.0343 25.9567 21.6473V21.6483ZM26.0467 21.5533L21.9767 10.1883L18.0367 21.5533H26.0467Z" fill="#1A4FFF"/>
</g>
<path d="M92.5105 31.3914C91.1035 32.2944 89.6585 32.7464 88.1755 32.7464C86.5975 32.7464 85.2055 32.4084 83.9975 31.7334C82.8201 31.0692 81.8446 30.0985 81.1745 28.9244C80.4995 27.7274 80.1625 26.3584 80.1625 24.8184C80.1625 23.1354 80.4945 21.6714 81.1605 20.4264C81.8255 19.1814 82.7435 18.2164 83.9125 17.5324C85.0815 16.8384 86.4265 16.4914 87.9475 16.4914C89.5635 16.4914 90.9375 16.8714 92.0675 17.6314C93.1995 18.3914 94.0355 19.4614 94.5775 20.8404C95.1195 22.2184 95.3095 23.8394 95.1475 25.7024H91.3125V24.2764C91.3125 22.7074 91.0605 21.5814 90.5565 20.8964C90.0625 20.2034 89.2495 19.8564 88.1185 19.8564C86.7975 19.8564 85.8225 20.2604 85.1955 21.0684C84.5775 21.8664 84.2685 23.0504 84.2685 24.6184C84.2685 26.0544 84.5785 27.1664 85.1955 27.9554C85.8225 28.7354 86.7405 29.1244 87.9475 29.1244C88.7075 29.1244 89.3595 28.9584 89.9005 28.6244C90.4425 28.2924 90.8565 27.8124 91.1405 27.1844H95.2055C94.8255 29.0864 93.9265 30.4884 92.5105 31.3914ZM93.2805 22.8214V25.7014H83.0705V22.8214H84.2975L84.1685 24.1334H84.6255C84.6725 23.7064 84.8535 23.3834 85.1665 23.1634C85.4805 22.9364 85.9035 22.8224 86.4365 22.8224H93.2805V22.8214ZM76.1725 31.3914C75.0325 32.2944 73.4545 32.7464 71.4395 32.7464C69.4995 32.7464 67.9315 32.3084 66.7335 31.4344C65.5455 30.5504 64.7995 29.1044 64.4955 27.0994H68.5305C68.6915 27.8224 69.0485 28.3874 69.6005 28.7964C70.1605 29.2054 70.8685 29.4094 71.7245 29.4094C72.4275 29.4094 72.9695 29.2764 73.3495 29.0094C73.7295 28.7344 73.9195 28.3544 73.9195 27.8694C73.9195 27.5654 73.8445 27.3234 73.6925 27.1424C73.5395 26.9524 73.1975 26.7664 72.6655 26.5864C72.1425 26.4064 71.3255 26.1684 70.2125 25.8734C68.9585 25.5504 67.9555 25.1884 67.2045 24.7894C66.4535 24.3894 65.9115 23.9154 65.5785 23.3634C65.2465 22.8034 65.0795 22.1284 65.0795 21.3394C65.0795 20.3504 65.3315 19.4944 65.8355 18.7724C66.3395 18.0404 67.0475 17.4794 67.9605 17.0904C68.8825 16.6904 69.9655 16.4904 71.2105 16.4904C72.4185 16.4904 73.4875 16.6764 74.4195 17.0474C75.3505 17.4174 76.1015 17.9454 76.6725 18.6294C77.2525 19.3144 77.6125 20.3594 77.7555 21.7664H73.7775C73.7105 21.1964 73.4635 20.7454 73.0365 20.4124C72.6085 20.0794 72.0285 19.8844 71.2965 19.8274C70.5835 19.7804 70.0085 19.8754 69.5715 20.1124C69.1435 20.3504 68.9295 20.6924 68.9295 21.1394C68.9295 21.4054 69.0195 21.6294 69.2005 21.8094C69.3905 21.9894 69.7755 22.1754 70.3555 22.3654C70.9455 22.5554 71.8385 22.8034 73.0355 23.1074C74.2055 23.4114 75.1415 23.7674 75.8455 24.1774C76.5585 24.5754 77.0755 25.0604 77.3995 25.6304C77.7225 26.1914 77.8845 26.8714 77.8845 27.6704C77.8845 29.2474 77.3145 30.4884 76.1725 31.3914ZM61.1465 11.3574V14.7804H57.2685V11.3584L61.1465 11.3574ZM61.1465 16.9184V32.3184H57.2685V16.9184H61.1465ZM49.1525 23.3924L49.1385 32.3184H45.2305V16.9184H48.6525V17.6034C48.6525 18.0594 48.6055 18.5204 48.5105 18.9864C48.3878 19.5554 48.2498 20.1209 48.0965 20.6824H48.4245C48.9285 19.2474 49.3225 18.3254 49.6075 17.9164C49.9025 17.5074 50.2495 17.2324 50.6485 17.0894C51.0485 16.9474 51.5235 16.8754 52.0745 16.8754H54.2705V20.4404L51.7325 20.4544C50.7725 20.4444 50.1025 20.6444 49.7225 21.0544C49.3035 21.5004 49.1135 22.2794 49.1525 23.3924Z" fill="white"/>
<path d="M103.308 8.65625V14.6613H102.173V8.65625H103.308ZM99.7581 14.4943C99.3911 14.6883 98.9661 14.7863 98.4821 14.7863C97.9991 14.7863 97.5731 14.6883 97.2061 14.4943C96.847 14.3045 96.5491 14.0166 96.3471 13.6643C96.1411 13.3083 96.0391 12.8903 96.0391 12.4093V8.66425L97.1891 8.65625V12.3993C97.1891 12.5972 97.2231 12.7763 97.2891 12.9373C97.3561 13.0993 97.4481 13.2372 97.5651 13.3542C97.6851 13.4713 97.8221 13.5613 97.9781 13.6253C98.1361 13.6863 98.3041 13.7173 98.4821 13.7173C98.6661 13.7173 98.8351 13.6853 98.9911 13.6213C99.1491 13.5573 99.2871 13.4673 99.4041 13.3513C99.5211 13.2333 99.6111 13.0943 99.6741 12.9333C99.7411 12.7723 99.7741 12.5942 99.7741 12.3993V8.65625H100.926V12.4093C100.926 12.8893 100.823 13.3093 100.617 13.6643C100.415 14.0168 100.117 14.3046 99.7581 14.4943Z" fill="#A7ADBE"/>
</g>
<defs>
<clipPath id="clip0_1248_9806">
<rect width="115" height="40" fill="white" transform="translate(0 0.5)"/>
</clipPath>
</defs>
</svg>
